<svg xmlns="http://www.w3.org/2000/svg" xmlns:xlink="http://www.w3.org/1999/xlink" width="280" height="280" viewBox="0 0 280 280" fill="none"><g  clip-path="url(#clip-path-qyTQW4_Z1cYGq862qG5gx)"><path d="M154.5 43L117.59 88.3622L114 94.1082L149.131 108.993L124.198 160.917L161.112 115.557L165.212 108.995L129.002 94.1042L154.5 43Z" fill-rule="evenodd"  fill="#CCCCCC" ></path><path     fill="#CCCCCC"  d="M68.0002 186.04L86.4302 186.04L86.4302 181L68.0002 181L68.0002 186.04Z"></path><path     fill="#CCCCCC"  d="M92.9802 186.04L111.42 186.04L111.42 181L92.9802 181L92.9802 186.04Z"></path><path     fill="#CCCCCC"  d="M117.97 186.04L136.4 186.04L136.4 181L117.97 181L117.97 186.04Z"></path><path     fill="#CCCCCC"  d="M142.95 186.04L161.38 186.04L161.38 181L142.95 181L142.95 186.04Z"></path><path     fill="#CCCCCC"  d="M167.94 186.04L186.37 186.04L186.37 181L167.94 181L167.94 186.04Z"></path><path     fill="#CCCCCC"  d="M192.92 186.04L211.35 186.04L211.35 181L192.92 181L192.92 186.04Z"></path><path     fill="#CCCCCC"  d="M68.0002 201.04L86.4302 201.04L86.4302 196L68.0002 196L68.0002 201.04Z"></path><path     fill="#CCCCCC"  d="M92.9802 201.04L111.42 201.04L111.42 196L92.9802 196L92.9802 201.04Z"></path><path     fill="#CCCCCC"  d="M117.97 201.04L136.4 201.04L136.4 196L117.97 196L117.97 201.04Z"></path><path     fill="#CCCCCC"  d="M142.95 201.04L161.38 201.04L161.38 196L142.95 196L142.95 201.04Z"></path><path     fill="#CCCCCC"  d="M167.94 201.04L186.37 201.04L186.37 196L167.94 196L167.94 201.04Z"></path><path     fill="#CCCCCC"  d="M192.92 201.04L211.35 201.04L211.35 196L192.92 196L192.92 201.04Z"></path><path     fill="#CCCCCC"  d="M68.0002 216.04L86.4302 216.04L86.4302 211L68.0002 211L68.0002 216.04Z"></path><path     fill="#CCCCCC"  d="M92.9802 216.04L111.42 216.04L111.42 211L92.9802 211L92.9802 216.04Z"></path><path     fill="#CCCCCC"  d="M117.97 216.04L136.4 216.04L136.4 211L117.97 211L117.97 216.04Z"></path><path     fill="#CCCCCC"  d="M142.95 216.04L161.38 216.04L161.38 211L142.95 211L142.95 216.04Z"></path><path     fill="#CCCCCC"  d="M167.94 216.04L186.37 216.04L186.37 211L167.94 211L167.94 216.04Z"></path><path     fill="#CCCCCC"  d="M192.92 216.04L211.35 216.04L211.35 211L192.92 211L192.92 216.04Z"></path><path d="M140 280C217.32 280 280 217.32 280 140C280 62.6805 217.32 0.000335661 140 0.000335673C62.6803 0.000335684 0.000183115 62.6805 0.000183126 140C0.000183138 217.32 62.6803 280 140 280ZM140 260C205.17 260 258 206.498 258 140.5C258 74.5023 205.17 21.0003 140 21.0003C74.8306 21.0003 22.0002 74.5023 22.0002 140.5C22.0002 206.498 74.8306 260 140 260Z" fill-rule="evenodd"  fill="#CCCCCC" ></path></g><defs><clipPath id="clip-path-qyTQW4_Z1cYGq862qG5gx"><path d="M4.15148e-08 280L280 280L280 -4.15148e-08L0 0L4.15148e-08 280Z" fill="white"/></clipPath></defs></svg>