<svg xmlns="http://www.w3.org/2000/svg" xmlns:xlink="http://www.w3.org/1999/xlink" width="280" height="280" viewBox="0 0 280 280" fill="none"><g  clip-path="url(#clip-path-uPFPWCUJ-SRv4eiCO_Q8B)"><rect x="-0.230010986328125" y="0" width="280" height="280"   fill="url(#linear_fill_rIxvzJNihke0Z46sCpdZE)" ></rect><circle cx="139.77017211914062" cy="140.00033569335938" r="140"   fill="url(#linear_fill_lB1QmnjYmh-l_gmbFNMWX)" ></circle><path d="M153.68 42.84L116.77 88.2022L113.18 93.9482L148.311 108.833L123.378 160.757L160.292 115.397L164.392 108.835L128.182 93.9442L153.68 42.84Z" fill-rule="evenodd"  fill="url(#linear_fill_LILU9fB8U4V7mMttGnuKf)" ></path><path     fill="#02A129"  d="M75.77 185.88L94.2 185.88L94.2 180.84L75.77 180.84L75.77 185.88Z"></path><path     fill="#02A129"  d="M100.75 185.88L119.19 185.88L119.19 180.84L100.75 180.84L100.75 185.88Z"></path><path     fill="#02A129"  d="M125.74 185.88L144.17 185.88L144.17 180.84L125.74 180.84L125.74 185.88Z"></path><path     fill="#02A129"  d="M150.72 185.88L169.15 185.88L169.15 180.84L150.72 180.84L150.72 185.88Z"></path><path     fill="#02A129"  d="M175.71 185.88L194.14 185.88L194.14 180.84L175.71 180.84L175.71 185.88Z"></path><path     fill="#02A129"  d="M200.69 185.88L219.12 185.88L219.12 180.84L200.69 180.84L200.69 185.88Z"></path><path     fill="#02A129"  d="M75.77 200.88L94.2 200.88L94.2 195.84L75.77 195.84L75.77 200.88Z"></path><path     fill="#02A129"  d="M100.75 200.88L119.19 200.88L119.19 195.84L100.75 195.84L100.75 200.88Z"></path><path     fill="#02A129"  d="M125.74 200.88L144.17 200.88L144.17 195.84L125.74 195.84L125.74 200.88Z"></path><path     fill="#02A129"  d="M150.72 200.88L169.15 200.88L169.15 195.84L150.72 195.84L150.72 200.88Z"></path><path     fill="#02A129"  d="M175.71 200.88L194.14 200.88L194.14 195.84L175.71 195.84L175.71 200.88Z"></path><path     fill="#02A129"  d="M200.69 200.88L219.12 200.88L219.12 195.84L200.69 195.84L200.69 200.88Z"></path><path     fill="#02A129"  d="M75.77 215.88L94.2 215.88L94.2 210.84L75.77 210.84L75.77 215.88Z"></path><path     fill="#02A129"  d="M100.75 215.88L119.19 215.88L119.19 210.84L100.75 210.84L100.75 215.88Z"></path><path     fill="#02A129"  d="M125.74 215.88L144.17 215.88L144.17 210.84L125.74 210.84L125.74 215.88Z"></path><path     fill="#02A129"  d="M150.72 215.88L169.15 215.88L169.15 210.84L150.72 210.84L150.72 215.88Z"></path><path     fill="#02A129"  d="M175.71 215.88L194.14 215.88L194.14 210.84L175.71 210.84L175.71 215.88Z"></path><path     fill="#02A129"  d="M200.69 215.88L219.12 215.88L219.12 210.84L200.69 210.84L200.69 215.88Z"></path></g><defs><clipPath id="clip-path-uPFPWCUJ-SRv4eiCO_Q8B"><path d="M0 280L280 280L280 0L0 0L0 280Z" fill="white"/></clipPath><linearGradient id="linear_fill_rIxvzJNihke0Z46sCpdZE" x1="-0.230010986328125" y1="0" x2="279.7699890136719" y2="280" gradientUnits="userSpaceOnUse"><stop offset="0" stop-color="#0F172A"  /><stop offset="1" stop-color="#38BDF8"  /></linearGradient><linearGradient id="linear_fill_lB1QmnjYmh-l_gmbFNMWX" x1="-0.229827880859375" y1="0.000335693359375" x2="279.7701721191406" y2="280.0003356933594" gradientUnits="userSpaceOnUse"><stop offset="0" stop-color="#FFFFFF"  /><stop offset="1" stop-color="#A7F3D0"  /></linearGradient><linearGradient id="linear_fill_LILU9fB8U4V7mMttGnuKf" x1="113.17999267578125" y1="42.839996337890625" x2="164.39199829101562" y2="160.75719451904297" gradientUnits="userSpaceOnUse"><stop offset="0" stop-color="#F97316"  /><stop offset="1" stop-color="#FDE047"  /></linearGradient></defs></svg>